# xmcd
#
# Track frame offsets: 
#        150
#        14354
#        27834
#        40170
#        55042
#        69892
#        83756
#        100388
#        112576
#        127600
#        140849
#        154156
#        167641
#        184795
#        197258
#        210062
#
# Disc length: 2944 seconds
#
# Revision: 0
# Processed by: cddbd v1.5.2PL0 Copyright (c) Steve Scherf et al.
# Submitted via: ExactAudioCopy v0.95b4
#
DISCID=ba0b7e10
DTITLE=Mick Flavin - Lucky Break
DYEAR=2006
DGENRE=Country
TTITLE0=I Love Ireland
TTITLE1=Waltz Of The Angels
TTITLE2=All My Roads Lead Back To You
TTITLE3=Sweet Rosie Jones
TTITLE4=Give A Lonely Heart A Home
TTITLE5=I Knew This Day Will Come
TTITLE6=Mayo To St. Antone
TTITLE7=Weary, Weary, World
TTITLE8=Village In County Tyrone
TTITLE9=His Latest Flame
TTITLE10=My Wild Rose Of Leitrim
TTITLE11=Clap Your Hands
TTITLE12=I See You Everywhere
TTITLE13=I Wonder Could I Live There
TTITLE14=No Justice In This World
TTITLE15=Lucky Break
EXTD=
EXTT0=
EXTT1=
EXTT2=
EXTT3=
EXTT4=
EXTT5=
EXTT6=
EXTT7=
EXTT8=
EXTT9=
EXTT10=
EXTT11=
EXTT12=
EXTT13=
EXTT14=
EXTT15=
PLAYORDER=
